<?xml version="1.0" standalone="no"?>
<!DOCTYPE svg PUBLIC "-//W3C//DTD SVG 20010904//EN"
 "http://www.w3.org/TR/2001/REC-SVG-20010904/DTD/svg10.dtd">
<svg version="1.0" xmlns="http://www.w3.org/2000/svg"
 width="300.000000pt" height="299.000000pt" viewBox="0 0 300.000000 299.000000"
 preserveAspectRatio="xMidYMid meet">
<metadata>
Created by potrace 1.10, written by Peter Selinger 2001-2011
</metadata>
<g transform="translate(0.000000,299.000000) scale(0.100000,-0.100000)"
fill="#000000" stroke="none">
<path d="M1228 2889 c-75 -15 -164 -38 -199 -51 -105 -38 -285 -134 -372 -197
-82 -59 -231 -205 -298 -291 -125 -160 -245 -438 -264 -610 -2 -25 -8 -58 -13
-75 -10 -34 -8 -307 2 -345 4 -14 9 -41 11 -60 12 -92 20 -122 56 -216 76
-202 145 -322 256 -452 190 -219 391 -351 682 -449 248 -83 578 -83 832 1 252
82 419 184 595 360 159 160 222 254 312 467 142 334 144 722 4 1049 -83 194
-161 317 -285 447 -155 163 -326 276 -557 366 -128 51 -291 79 -475 81 -130 2
-169 -1 -287 -25z m512 -23 c19 -3 55 -13 80 -20 25 -8 60 -18 79 -21 52 -11
255 -99 331 -144 126 -75 300 -237 406 -376 94 -124 201 -364 228 -510 9 -49
21 -109 26 -132 20 -87 11 -278 -20 -428 -63 -304 -208 -557 -439 -763 -113
-101 -199 -158 -324 -217 -222 -104 -405 -141 -657 -131 -194 7 -207 9 -365
61 -225 73 -387 168 -543 319 -280 270 -432 621 -432 996 0 226 46 405 163
640 97 194 299 412 496 534 85 52 265 130 354 152 34 9 69 20 77 24 8 4 40 11
70 15 30 4 57 9 59 11 6 6 370 -3 411 -10z"/>
<path d="M1343 2793 c-14 -3 -26 -16 -34 -40 l-11 -36 -24 30 c-19 24 -28 29
-54 25 l-32 -5 46 -46 c35 -36 46 -54 46 -78 0 -37 8 -44 39 -36 20 5 22 10
17 44 -5 30 0 48 25 93 30 56 29 58 -18 49z"/>
<path d="M1526 2712 c-7 -89 -2 -102 37 -102 13 0 17 8 17 35 0 34 1 35 38 35
47 0 62 14 62 57 0 39 -15 48 -91 56 l-56 5 -7 -86z m99 23 c0 -13 -8 -21 -22
-23 -19 -3 -23 1 -23 23 0 22 4 26 23 23 14 -2 22 -10 22 -23z"/>
<path d="M1763 2745 c-12 -8 -27 -31 -33 -51 -16 -47 1 -87 45 -108 64 -31
103 -16 131 49 13 31 13 43 3 67 -21 52 -100 75 -146 43z m85 -37 c18 -18 15
-53 -7 -79 -16 -20 -23 -22 -38 -13 -25 15 -29 61 -7 85 20 22 35 24 52 7z"/>
<path d="M1089 2727 c-25 -9 -27 -15 -33 -100 -4 -49 -5 -92 -2 -94 9 -10 46
9 46 23 0 20 50 38 71 25 9 -5 29 -7 43 -3 l26 7 -61 75 c-34 41 -62 75 -63
76 0 0 -13 -4 -27 -9z m36 -73 c14 -22 15 -28 4 -35 -24 -15 -29 -10 -29 26 0
19 2 35 4 35 2 0 11 -12 21 -26z"/>
<path d="M1945 2623 c-19 -42 -32 -80 -28 -83 13 -11 111 -50 126 -50 8 0 22
9 33 21 15 16 16 24 6 39 -16 25 -15 30 3 30 21 0 35 31 23 53 -8 15 -104 67
-123 67 -2 0 -20 -35 -40 -77z m101 13 c14 -11 16 -18 8 -26 -16 -16 -55 5
-48 25 8 19 15 19 40 1z m-11 -86 c0 -19 -18 -22 -40 -7 -12 9 -16 20 -12 32
7 16 9 16 30 2 12 -8 22 -20 22 -27z"/>
<path d="M895 2648 c-73 -40 -88 -106 -36 -159 35 -35 60 -36 111 -8 54 30 66
58 46 98 -9 17 -18 31 -21 31 -2 0 -20 -9 -39 -21 -22 -13 -33 -26 -29 -35 6
-16 19 -18 28 -4 9 15 25 12 25 -5 0 -8 -11 -22 -25 -31 -25 -16 -27 -16 -50
6 -31 29 -34 76 -6 85 10 3 23 4 27 3 5 -2 20 5 32 14 24 16 24 16 4 27 -26
14 -41 13 -67 -1z"/>
<path d="M2133 2525 c-29 -41 -49 -75 -45 -75 4 0 30 -18 59 -39 49 -38 52
-39 68 -21 15 17 14 19 -19 40 -20 12 -36 25 -36 28 0 4 16 29 35 56 33 46 34
51 18 68 -9 10 -19 18 -22 18 -3 -1 -30 -34 -58 -75z"/>
<path d="M715 2530 c-18 -20 -18 -21 15 -55 38 -39 33 -42 -31 -20 -35 13 -48
13 -66 4 -13 -7 -23 -17 -23 -23 1 -6 27 -39 59 -74 57 -62 57 -63 76 -42 18
20 18 21 -15 55 -38 39 -33 42 31 20 35 -13 48 -13 66 -4 13 7 23 17 23 23 -1
6 -27 39 -59 74 -57 62 -57 63 -76 42z"/>
<path d="M1398 2545 c-2 -1 -27 -5 -56 -9 -134 -16 -344 -106 -470 -202 -201
-152 -350 -381 -400 -609 -23 -109 -22 -361 2 -460 28 -117 77 -225 150 -335
135 -203 285 -322 516 -413 123 -49 180 -57 380 -53 102 2 199 6 215 10 46 10
94 27 123 42 15 8 33 14 41 14 29 0 195 97 271 157 135 109 266 291 327 456
38 104 63 246 63 357 0 381 -217 736 -564 924 -78 43 -239 98 -321 111 -41 7
-272 15 -277 10z m347 -70 c146 -37 249 -87 366 -174 58 -44 127 -105 153
-136 63 -73 156 -213 156 -234 0 -9 4 -21 8 -27 15 -15 53 -120 58 -155 2 -19
7 -44 9 -55 5 -21 4 -21 -178 -16 l-182 5 -45 -34 c-65 -49 -89 -63 -145 -84
-63 -23 -86 -38 -77 -51 4 -6 45 -37 92 -68 47 -32 110 -79 140 -105 64 -55
80 -66 80 -53 0 13 -143 127 -249 198 -39 26 -50 39 -40 44 8 4 107 10 222 13
186 5 207 4 207 -11 0 -12 -3 -13 -12 -4 -17 17 -65 15 -76 -4 -6 -11 -11 -13
-16 -5 -4 6 -13 11 -19 11 -7 -1 -2 -9 11 -19 32 -27 27 -35 -8 -14 -16 9 -30
21 -30 25 0 4 -4 8 -10 8 -18 0 -10 -17 13 -27 12 -6 41 -26 64 -44 24 -19 68
-54 100 -79 31 -25 68 -55 81 -68 13 -13 27 -21 30 -17 3 3 -10 18 -28 33 -19
15 -50 41 -70 57 -19 17 -52 43 -73 58 -20 16 -35 32 -32 37 3 5 14 1 25 -10
11 -11 26 -17 35 -14 8 4 27 -2 41 -11 15 -9 23 -12 20 -6 -9 13 13 14 34 1 9
-6 17 -5 21 2 4 6 12 7 20 2 7 -4 26 -8 43 -8 16 -1 31 -7 34 -15 3 -10 0 -12
-14 -7 -15 6 -17 5 -6 -5 6 -7 12 -20 12 -28 0 -11 -5 -10 -22 5 -49 43 -61
46 -22 6 24 -25 40 -50 38 -60 -31 -156 -89 -300 -160 -401 -2 -2 -26 22 -54
53 -49 53 -176 138 -245 164 -42 16 -161 43 -215 48 -25 3 -205 6 -400 8 -195
1 -369 5 -385 9 -228 44 -377 131 -492 289 -58 80 -70 117 -50 161 6 13 12 15
27 7 10 -5 28 -10 38 -10 15 0 19 -5 15 -20 -4 -16 -2 -19 12 -14 14 6 16 3
11 -17 -7 -23 -6 -23 8 -5 14 17 16 17 16 3 0 -9 -9 -21 -20 -27 -26 -14 -26
-34 0 -27 11 3 20 1 20 -4 0 -4 6 -6 13 -3 11 4 12 -6 6 -53 -8 -61 -7 -69 10
-58 6 3 11 28 11 55 0 49 16 100 32 100 9 0 12 -15 8 -40 -2 -12 2 -12 17 3
27 24 52 23 31 0 -10 -12 -13 -25 -8 -38 8 -21 8 -21 25 31 11 34 12 7 3 -61
-5 -38 -7 -89 -3 -112 6 -40 8 -43 37 -43 l31 0 -21 23 c-21 23 -28 66 -24
160 2 54 20 62 59 25 29 -27 31 -6 3 29 -11 14 -20 32 -20 40 0 9 -6 13 -15 9
-8 -3 -15 -1 -15 5 0 6 -5 7 -12 3 -7 -5 -9 -2 -5 9 4 10 0 17 -11 20 -9 3 -4
5 12 6 22 1 27 -3 22 -15 -4 -10 -2 -14 6 -11 7 2 12 10 11 16 -2 7 13 11 40
10 23 0 35 -3 27 -6 -8 -3 -25 -10 -38 -14 -19 -8 -21 -11 -10 -29 7 -11 18
-22 25 -24 10 -4 10 -1 1 14 -17 27 -11 29 52 20 30 -5 80 -11 110 -15 30 -3
66 -7 80 -9 23 -4 75 -10 175 -22 22 -2 95 -11 161 -19 67 -9 182 -16 255 -16
l134 -1 90 42 c50 24 85 45 79 47 -7 2 -27 -4 -45 -15 -37 -20 -115 -49 -139
-52 -82 -9 -188 -9 -245 0 -39 6 -81 10 -94 10 -13 0 -29 4 -35 9 -6 5 -28 8
-49 7 -20 -2 -37 1 -37 6 0 5 -22 6 -50 4 -27 -3 -50 -1 -50 4 0 4 -18 6 -41
4 -30 -4 -39 -2 -34 7 6 9 -4 10 -39 5 -31 -5 -46 -4 -46 4 0 7 -12 9 -35 4
-28 -5 -35 -3 -35 9 0 11 -12 17 -42 20 -50 4 682 11 787 7 55 -2 73 -6 83
-21 10 -15 24 -18 63 -17 28 1 53 6 55 10 3 4 14 8 25 8 11 0 18 4 15 8 -3 5
1 9 9 9 11 0 12 -4 4 -14 -19 -22 4 -14 36 13 l30 26 -42 -5 c-45 -5 -63 5
-63 39 0 16 -6 22 -25 22 -18 0 -25 -6 -25 -19 0 -14 -7 -19 -29 -19 -24 0
-31 6 -40 31 -6 18 -11 33 -11 34 0 1 13 0 30 -3 26 -4 29 -7 24 -31 l-6 -26
14 25 c15 28 17 28 158 16 89 -7 119 -12 160 -26 14 -5 72 -11 130 -13 96 -5
103 -4 77 9 -15 8 -66 19 -115 24 -48 6 -118 15 -157 21 -38 6 -113 12 -165
14 -52 3 -110 5 -127 6 -18 1 -33 6 -33 11 0 6 -6 8 -14 5 -8 -3 -16 -1 -19 6
-5 16 -134 24 -237 14 -47 -4 -186 -19 -310 -32 -124 -13 -259 -27 -300 -30
-41 -4 -90 -11 -109 -16 -34 -8 -67 4 -56 21 3 4 -2 11 -11 14 -8 3 -13 9 -11
13 3 5 -1 14 -9 21 -10 9 -14 9 -14 1 0 -6 -7 -8 -16 -5 -9 4 -27 -1 -40 -9
-22 -14 -24 -14 -24 0 0 19 -46 13 -69 -10 -14 -13 -13 -15 3 -15 14 0 17 -5
12 -25 -5 -20 -3 -25 12 -25 13 0 18 -7 17 -22 -2 -22 -6 -23 -70 -21 -38 2
-72 6 -77 11 -4 4 -2 29 6 55 7 25 12 48 9 51 -3 2 22 60 56 128 65 133 156
258 238 325 194 160 353 229 593 257 71 8 238 -7 325 -29z m60 -687 c14 -6 25
-18 25 -27 0 -18 -20 -52 -20 -35 0 18 -32 26 -42 12 -13 -21 -9 -31 7 -18 12
10 16 9 22 -5 4 -12 0 -23 -12 -31 -28 -21 -35 -17 -35 19 -1 36 -25 76 -39
61 -4 -5 -13 -24 -19 -43 -11 -30 -10 -32 6 -26 29 11 34 11 39 -4 4 -9 0 -11
-16 -6 -11 3 -21 3 -21 -2 0 -11 -1008 -9 -1019 3 -11 11 4 54 19 54 14 0 13
-27 -2 -33 -9 -4 -8 -6 2 -6 9 -1 21 4 28 11 9 9 12 9 12 -1 0 -7 4 -10 9 -7
5 4 11 0 14 -6 3 -8 9 -1 15 14 8 20 16 26 28 21 16 -6 16 -7 -2 -14 -31 -12
26 -10 166 6 120 13 155 17 300 31 36 3 133 14 215 24 181 21 285 24 320 8z
m55 -32 c0 -14 5 -28 10 -31 15 -10 12 -32 -6 -39 -9 -4 -23 -1 -30 5 -12 10
-13 9 -8 -5 4 -11 1 -16 -10 -16 -21 0 -20 7 4 37 11 14 20 36 20 49 0 13 5
24 10 24 6 0 10 -11 10 -24z m123 -111 c-24 -18 -34 -9 -27 23 11 43 16 46 31
18 13 -25 13 -29 -4 -41z m-43 10 c0 -10 -10 -15 -30 -15 -20 0 -30 5 -30 15
0 10 10 15 30 15 20 0 30 -5 30 -15z m-1190 -26 c-9 -15 -7 -19 5 -19 8 0 15
-4 15 -10 0 -5 -12 -10 -26 -10 -21 0 -24 4 -19 20 5 14 2 20 -9 20 -9 0 -16
5 -16 11 0 6 9 9 20 6 11 -3 20 -1 20 5 0 5 5 6 10 3 7 -4 7 -13 0 -26z m1761
-6 c0 -21 3 -57 5 -81 4 -36 1 -47 -17 -63 -21 -18 -55 -27 -46 -11 3 4 -17 5
-44 4 -57 -4 -99 4 -99 19 0 6 28 9 73 7 68 -3 73 -1 95 24 13 15 21 32 17 38
-10 16 -65 12 -71 -5 -7 -18 -27 -20 -22 -3 8 22 -37 61 -61 53 -11 -3 -21
-12 -21 -20 0 -7 -8 -16 -17 -19 -27 -11 -241 -8 -262 3 -10 6 -22 7 -26 3 -5
-4 -5 -1 -1 6 4 7 12 10 17 7 5 -4 9 -2 9 3 0 4 14 19 31 31 18 13 29 17 25
10 -4 -8 -1 -6 7 3 8 10 17 15 20 11 4 -3 7 -1 7 5 0 9 52 12 190 12 l190 0 1
-37z m-143 -35 c19 -19 14 -41 -13 -61 l-25 -18 0 39 c0 51 13 65 38 40z
m-1780 -182 c90 -94 220 -170 352 -206 95 -26 178 -31 585 -34 322 -2 333 -3
429 -29 118 -32 209 -83 301 -169 36 -33 65 -64 65 -68 0 -4 -9 -18 -19 -31
l-20 -24 -63 62 c-130 127 -280 186 -518 204 -94 7 -192 8 -280 3 -74 -5 -209
-6 -300 -3 -156 6 -170 8 -269 43 -120 42 -184 82 -287 183 -74 71 -74 71 -74
125 l1 53 30 -35 c17 -19 47 -52 67 -74z m-73 -55 c18 -58 162 -168 282 -215
149 -59 153 -59 598 -60 l410 -1 95 -28 c141 -42 279 -125 331 -199 21 -28 21
-30 3 -50 -35 -38 -215 -168 -277 -199 -224 -113 -493 -139 -727 -68 -125 37
-197 72 -305 147 -155 108 -288 271 -353 431 -28 71 -82 238 -82 256 0 14 19
2 25 -14z"/>
<path d="M1531 2362 c-11 -25 -9 -61 5 -134 3 -16 1 -28 -4 -28 -6 0 -17 -2
-25 -6 -11 -4 -17 11 -27 58 -10 47 -21 70 -44 92 l-31 29 -3 -38 c-3 -29 4
-49 34 -93 34 -52 35 -56 18 -69 -22 -16 -12 -28 13 -14 52 28 82 38 91 29 5
-5 20 -10 34 -12 33 -3 82 -44 107 -89 l20 -36 -34 20 c-21 13 -60 22 -107 26
-96 7 -136 30 -184 106 -25 39 -50 65 -71 73 -43 19 -44 18 -31 -13 12 -31 66
-83 84 -83 6 0 17 -7 24 -16 12 -13 10 -14 -12 -3 -21 9 -35 8 -73 -7 -26 -9
-52 -22 -59 -29 -33 -32 -81 -55 -166 -80 -52 -15 -115 -38 -140 -50 -25 -13
-72 -31 -104 -40 -32 -9 -66 -25 -76 -35 -27 -27 -55 -40 -88 -40 -17 0 -37
-9 -51 -24 -13 -14 -36 -30 -52 -36 -16 -7 -29 -16 -29 -21 0 -12 72 25 89 45
8 9 27 16 43 16 32 0 78 21 97 44 8 9 34 22 60 30 25 8 76 28 113 45 36 17 71
31 76 31 29 0 169 53 198 75 18 14 57 37 86 50 l52 24 76 -39 c65 -34 85 -40
139 -40 71 0 81 -4 170 -72 61 -46 67 -48 127 -48 35 0 66 -5 69 -11 4 -5 12
-8 18 -6 7 2 35 -2 62 -9 44 -12 56 -12 100 3 28 10 54 16 58 15 5 -1 6 2 3 7
-11 17 26 21 57 7 28 -13 144 -46 162 -46 3 0 4 4 1 8 -3 5 -36 17 -73 27 -37
10 -79 23 -93 30 -21 11 -32 9 -87 -18 l-63 -31 -90 23 c-59 15 -101 21 -124
17 -26 -5 -46 -1 -77 14 -22 12 -39 23 -36 26 2 2 27 0 54 -6 40 -9 58 -8 84
3 l34 14 -38 16 c-21 9 -43 14 -50 12 -6 -2 -23 -6 -37 -9 -14 -2 -37 -7 -52
-11 -22 -6 -28 -4 -28 8 0 8 -3 22 -6 30 -4 12 10 18 63 27 55 10 73 18 91 41
l24 29 -39 0 c-21 0 -47 -6 -58 -13 -11 -7 -36 -23 -56 -35 l-37 -22 -16 24
c-16 25 -15 25 43 60 53 33 70 55 71 93 0 26 -57 -12 -95 -63 -22 -29 -43 -53
-46 -54 -3 0 -13 6 -23 13 -18 13 -17 17 18 71 34 54 50 126 27 126 -22 0 -59
-62 -66 -108 -8 -62 -15 -73 -43 -65 -21 5 -23 10 -17 52 3 25 7 55 9 66 4 23
-12 75 -24 75 -4 0 -13 -13 -19 -28z"/>
<path d="M1210 2164 c0 -3 6 -12 14 -20 12 -11 20 -12 40 -3 14 7 23 16 20 20
-6 10 -74 12 -74 3z"/>
<path d="M575 1700 l-50 -7 53 -1 c29 -1 52 2 52 8 0 6 -1 9 -2 8 -2 0 -25 -4
-53 -8z"/>
<path d="M1045 1579 c-4 -6 -4 -13 -1 -16 3 -4 -1 -14 -9 -23 -12 -13 -13 -23
-5 -47 6 -17 10 -34 9 -39 -7 -23 14 -94 27 -94 8 0 14 5 14 12 0 6 11 -2 25
-18 28 -32 25 -46 -5 -19 -11 10 -20 13 -20 7 0 -6 6 -12 13 -15 6 -2 9 -7 6
-11 -9 -10 -39 4 -39 19 0 10 -9 11 -36 5 -44 -10 -59 -23 -51 -44 13 -34 232
-12 245 24 7 18 8 18 32 0 14 -11 19 -20 13 -20 -7 0 -13 -5 -13 -10 0 -6 14
-4 35 4 42 18 59 2 27 -25 -30 -24 -28 -29 16 -29 21 0 44 -6 51 -12 10 -11
15 -10 25 5 7 9 17 17 21 17 4 0 2 -7 -5 -15 -11 -13 -6 -15 33 -15 49 0 79
22 59 42 -9 9 -15 9 -24 0 -7 -7 -20 -12 -31 -12 -14 0 -17 5 -11 23 3 12 11
24 15 25 5 2 9 10 9 18 0 8 11 25 24 37 27 24 44 67 27 67 -6 0 -11 -7 -11
-15 0 -8 -13 -27 -29 -41 -18 -16 -28 -32 -24 -43 4 -13 2 -13 -10 2 -8 10
-13 27 -10 37 6 22 23 27 23 8 0 -9 3 -9 13 1 10 10 7 16 -12 29 -34 23 -91
42 -107 35 -16 -6 -56 -91 -49 -103 3 -5 1 -11 -5 -15 -10 -6 -70 24 -70 35 0
8 -74 6 -88 -3 -14 -10 -19 1 -26 63 -2 25 -7 52 -11 61 -3 9 1 21 9 28 13 11
16 8 22 -16 11 -47 46 -123 56 -123 6 0 8 7 4 15 -3 8 -1 15 3 15 5 0 12 -6
14 -12 4 -9 6 -9 6 1 1 10 11 5 31 -14 16 -16 32 -27 34 -24 3 2 -31 42 -74
89 -44 47 -79 92 -80 100 0 8 -15 25 -33 38 -38 25 -43 26 -52 11z m175 -184
c0 -4 -6 -2 -13 4 -8 6 -17 8 -20 5 -5 -5 -37 58 -37 72 0 2 16 -13 35 -35 19
-21 35 -42 35 -46z m167 13 c16 -27 13 -49 -9 -57 -14 -5 -18 -10 -10 -15 7
-4 10 -12 6 -17 -8 -14 -34 9 -34 30 0 9 8 27 17 40 10 15 11 21 3 16 -9 -5
-11 -4 -6 3 9 16 23 15 33 0z m33 -79 c13 -24 12 -26 -15 -31 -11 -2 -20 2
-19 10 3 36 5 42 14 42 5 0 14 -9 20 -21z"/>
<path d="M1770 1524 c0 -6 8 -22 19 -35 10 -13 37 -59 61 -102 23 -43 45 -76
47 -73 3 3 -11 35 -31 72 -20 36 -35 68 -33 70 6 7 21 -15 62 -91 37 -70 55
-96 55 -81 0 16 -91 173 -110 191 -20 18 -21 18 -15 -1 7 -21 11 -25 -39 41
-9 11 -16 15 -16 9z"/>
<path d="M1929 1512 c74 -51 161 -117 198 -150 22 -20 47 -42 55 -49 7 -7 19
-19 26 -27 9 -12 24 -14 60 -9 26 3 49 7 51 9 7 6 -68 70 -183 158 -65 49 -73
56 -60 56 6 0 35 -18 65 -41 30 -22 63 -45 74 -51 25 -12 -28 34 -78 69 -20
14 -35 28 -33 30 5 6 63 -24 71 -37 3 -5 29 -25 58 -45 69 -47 153 -122 146
-130 -4 -3 -35 17 -69 45 -34 29 -64 50 -67 47 -2 -3 18 -23 46 -44 27 -21 50
-44 50 -50 1 -15 39 -17 59 -4 9 5 -2 20 -40 53 -64 55 -180 143 -211 160 -25
14 -89 20 -81 7 3 -5 1 -9 -5 -9 -5 0 -13 5 -16 10 -3 6 -14 10 -23 10 -9 0 7
-16 35 -35 50 -33 72 -55 57 -55 -4 0 -21 10 -38 23 -17 13 -38 27 -46 31 -24
13 29 -35 90 -81 85 -65 136 -112 122 -113 -8 0 -42 25 -77 55 -34 31 -78 66
-96 80 -81 58 -151 105 -157 104 -4 0 4 -8 17 -17z m253 -119 c24 -21 60 -50
79 -64 18 -15 31 -30 27 -34 -5 -6 -168 121 -168 132 0 11 25 -2 62 -34z"/>
<path d="M1525 1458 c19 -35 50 -89 68 -120 27 -48 36 -58 60 -58 15 0 27 2
27 5 0 11 -51 107 -85 160 -19 30 -35 59 -35 65 0 5 -7 10 -15 10 -10 0 -2
-20 28 -67 41 -65 87 -148 87 -158 0 -14 -21 -2 -32 19 -7 13 -34 61 -60 106
-27 45 -48 86 -48 91 0 5 -7 9 -16 9 -12 0 -7 -15 21 -62z"/>
<path d="M1588 1488 c10 -18 35 -60 55 -93 20 -34 41 -74 48 -90 6 -17 13 -25
16 -18 5 14 -14 52 -67 134 -22 34 -42 70 -45 80 -4 10 -11 19 -16 19 -6 0 -2
-15 9 -32z"/>
<path d="M1610 1512 c0 -7 18 -40 40 -72 22 -33 43 -68 47 -77 12 -31 45 -84
50 -79 6 6 -50 112 -96 181 -23 33 -41 54 -41 47z"/>
<path d="M1640 1514 c0 -4 20 -37 43 -73 24 -36 54 -88 66 -115 12 -27 23 -47
26 -44 9 8 -35 99 -82 171 -42 63 -53 76 -53 61z"/>
<path d="M1686 1493 c37 -57 85 -139 102 -175 15 -34 32 -50 32 -30 0 6 -55
101 -118 204 -9 16 -21 28 -26 28 -4 0 0 -12 10 -27z"/>
<path d="M1722 1488 c31 -42 77 -121 101 -172 9 -21 20 -37 23 -34 13 13 -118
238 -139 238 -5 0 2 -15 15 -32z"/>
<path d="M1740 1516 c0 -5 11 -23 24 -40 13 -17 44 -69 69 -116 26 -47 47 -79
47 -72 0 17 -85 171 -115 207 -14 17 -25 26 -25 21z"/>
<path d="M1830 1511 c0 -5 9 -16 20 -26 21 -19 72 -103 102 -169 10 -21 21
-37 23 -34 6 6 -51 124 -64 133 -6 3 -11 12 -11 20 0 7 -16 29 -35 48 -19 19
-35 32 -35 28z"/>
<path d="M2300 1446 c0 -3 12 -12 28 -20 15 -8 56 -42 91 -75 36 -34 67 -59
69 -56 4 4 -15 24 -84 86 -39 35 -104 75 -104 65z"/>
<path d="M2425 1387 c27 -26 54 -47 60 -47 11 0 -59 64 -90 82 -11 6 2 -10 30
-35z"/>
<path d="M1940 1404 c0 -3 15 -33 32 -65 30 -54 36 -59 66 -59 l33 0 -27 35
c-30 40 -55 48 -30 10 18 -28 20 -35 7 -35 -5 0 -21 24 -35 54 -23 49 -46 79
-46 60z"/>
<path d="M773 1041 c-40 -36 -62 -70 -27 -41 13 12 15 7 12 -40 -3 -48 -6 -55
-28 -60 l-25 -6 24 -8 c23 -8 187 -1 244 10 53 11 28 25 -32 18 l-59 -6 1 51
c1 53 5 59 25 39 7 -7 12 -8 12 -3 0 12 -82 85 -95 85 -5 -1 -29 -18 -52 -39z
m87 -1 c0 -3 -16 -5 -35 -6 -33 0 -34 1 -19 17 13 15 20 16 35 6 10 -6 19 -14
19 -17z m10 -55 c0 -19 -4 -35 -10 -35 -5 0 -10 11 -10 25 0 14 -7 28 -15 31
-22 9 -44 -13 -38 -36 3 -11 1 -20 -5 -20 -5 0 -12 16 -14 35 l-4 35 48 0 48
0 0 -35z m0 -65 c0 -5 -20 -10 -45 -10 -25 0 -45 5 -45 10 0 6 20 10 45 10 25
0 45 -4 45 -10z"/>
<path d="M1272 1027 c-26 -27 -29 -77 -9 -152 l13 -50 -226 1 c-124 0 -236 -3
-250 -7 -32 -9 -7 -10 284 -12 l219 -2 2 -23 c1 -18 -2 -21 -18 -16 -16 5 -19
3 -14 -10 4 -10 1 -16 -9 -16 -8 0 -12 5 -9 10 4 6 -5 10 -19 10 -19 0 -26 -5
-26 -19 0 -15 6 -18 33 -16 17 2 59 3 92 4 46 1 56 4 45 12 -12 8 -9 9 10 4
59 -16 72 -17 105 -11 56 11 41 21 -25 18 -40 -3 -60 0 -60 8 0 7 -15 10 -41
7 -29 -3 -42 0 -46 10 -10 25 13 30 133 32 l116 2 -5 -50 c-3 -28 -1 -53 4
-57 17 -10 9 -40 -16 -64 -23 -21 -28 -22 -64 -12 -48 15 -51 15 -51 -1 0 -8
-10 -19 -22 -25 -27 -13 -34 -12 114 -17 73 -2 102 1 118 12 11 8 18 18 15 23
-3 4 1 10 9 13 8 3 21 26 31 50 17 44 17 44 67 46 27 0 54 3 59 6 5 4 9 2 9
-4 0 -5 -8 -12 -17 -14 -10 -2 11 -2 47 0 36 3 76 4 90 4 40 -1 67 8 73 23 4
10 -7 14 -46 14 -36 0 -46 -2 -32 -8 11 -4 23 -6 28 -3 4 2 7 -1 7 -6 0 -15
-22 -14 -47 4 -13 9 -34 13 -57 10 -20 -3 -36 -1 -36 3 0 4 -9 8 -20 9 -11 1
-19 -3 -17 -9 1 -6 -10 -11 -25 -12 -16 -1 -28 1 -28 4 0 3 -12 6 -27 5 -20 0
-28 6 -34 28 l-7 28 199 -2 c110 -1 196 -5 193 -10 -3 -5 1 -9 8 -10 7 0 28
-2 46 -3 29 -3 48 12 20 16 -7 0 7 4 32 8 l45 8 -55 1 c-30 1 -157 3 -282 5
l-227 5 9 -25 c13 -33 13 -34 -5 -28 -11 5 -14 2 -9 -12 6 -17 5 -17 -9 1 -14
17 -16 18 -17 3 0 -9 8 -21 17 -26 15 -9 15 -13 -1 -56 -18 -48 -39 -66 -77
-66 -19 0 -20 2 -8 17 10 11 14 44 14 102 0 78 2 86 19 86 11 0 21 6 24 14 3
10 0 12 -12 8 -10 -4 -19 -1 -22 8 -8 20 -26 8 -20 -13 5 -15 -7 -17 -114 -17
-97 0 -121 3 -126 15 -5 13 -8 12 -19 -3 -13 -18 -14 -18 -25 3 -6 12 -14 54
-17 94 -6 77 7 106 47 106 50 0 221 -105 268 -164 9 -13 23 -21 30 -18 16 5
15 22 -1 22 -8 0 -22 9 -33 21 -28 31 -138 107 -186 129 -58 27 -99 25 -126
-3z m428 -305 c-15 -51 -23 -67 -43 -89 -11 -13 -25 -23 -30 -23 -6 0 -1 10
10 23 28 31 43 61 43 90 0 26 8 39 21 32 4 -3 4 -18 -1 -33z m-104 -123 c3 -5
-14 -9 -38 -9 -28 0 -38 3 -29 9 17 11 60 11 67 0z"/>
<path d="M1633 834 c-9 -20 -8 -26 7 -34 16 -9 19 -6 18 20 -1 40 -10 45 -25
14z"/>
<path d="M979 782 c-1 -4 -1 -11 0 -16 1 -5 -21 -6 -48 -2 -44 6 -50 5 -44 -9
5 -13 17 -16 62 -12 31 3 48 3 39 0 -10 -2 -18 -8 -18 -12 0 -13 122 -4 131
10 6 10 11 10 21 1 22 -18 77 2 78 29 0 3 -21 5 -47 4 -71 -3 -75 -4 -67 -17
6 -10 4 -10 -7 0 -7 6 -23 12 -36 12 -13 0 -23 4 -23 8 0 10 -40 13 -41 4z"/>
<path d="M1623 725 c0 -15 5 -25 13 -25 15 0 17 10 8 34 -9 24 -21 19 -21 -9z"/>
<path d="M1496 722 c-4 -4 -41 -7 -81 -7 -71 -1 -96 -7 -82 -22 4 -3 18 0 32
7 20 11 29 11 49 1 20 -11 32 -11 67 1 24 8 38 17 32 21 -5 4 -13 3 -17 -1z"/>
<path d="M1363 622 c-12 -2 -27 -10 -34 -18 -28 -34 3 -39 234 -39 191 0 225
2 245 17 24 16 24 16 4 27 -26 14 -65 14 -57 1 4 -6 12 -10 18 -9 31 4 39 -4
12 -12 -16 -5 -88 -12 -160 -15 -196 -10 -360 11 -250 32 19 3 38 10 40 15 5
8 -6 8 -52 1z"/>
<path d="M2287 2409 l-78 -40 23 -19 c14 -11 27 -15 34 -9 14 12 56 -33 49
-53 -5 -13 31 -57 38 -47 2 2 19 41 37 87 31 80 32 83 15 102 -10 11 -23 20
-29 20 -6 -1 -46 -19 -89 -41z m83 -14 c0 -10 -24 -55 -30 -55 -3 0 -12 6 -18
12 -10 10 -8 16 10 30 22 17 38 23 38 13z"/>
<path d="M506 2335 c-16 -25 -15 -28 25 -105 23 -44 44 -80 48 -80 11 0 32 40
26 50 -3 5 2 21 11 35 12 19 23 25 38 21 15 -4 26 1 35 15 7 12 11 22 9 23 -7
5 -163 66 -169 66 -4 0 -14 -11 -23 -25z m77 -41 c19 -7 21 -13 8 -33 -8 -12
-13 -11 -30 10 -23 27 -27 43 -8 35 6 -3 20 -9 30 -12z"/>
<path d="M2454 2296 c-65 -29 -81 -87 -38 -143 20 -26 32 -33 61 -33 28 0 34
3 29 16 -3 9 -6 20 -6 26 0 6 -9 8 -19 5 -12 -3 -27 3 -37 14 -16 18 -16 20 2
40 43 47 84 44 84 -6 0 -26 24 -50 40 -40 20 12 11 64 -17 94 -35 37 -60 44
-99 27z"/>
<path d="M387 2163 c-28 -44 -47 -80 -47 -86 0 -6 138 -87 147 -87 7 0 32 32
33 41 0 4 -14 12 -30 19 -42 17 -32 35 20 36 36 0 45 5 57 29 l15 28 -51 -5
c-44 -4 -51 -3 -46 10 8 21 -23 52 -51 52 -17 0 -31 -12 -47 -37z m60 -29 c2
-5 -3 -18 -10 -28 -10 -14 -18 -16 -30 -10 -16 9 -16 12 -1 32 16 23 35 25 41
6z"/>
<path d="M2550 2110 c-35 -22 -66 -43 -67 -47 -2 -5 3 -17 10 -27 13 -18 17
-17 88 24 41 24 75 45 77 46 7 4 -23 44 -33 43 -5 0 -39 -18 -75 -39z"/>
<path d="M2603 2015 c-17 -7 -39 -25 -49 -40 -16 -25 -16 -31 -3 -68 27 -77
90 -96 154 -46 45 36 25 138 -31 159 -31 12 -32 12 -71 -5z m82 -66 c10 -30
-22 -61 -59 -57 -24 2 -32 8 -34 27 -7 47 79 74 93 30z"/>
<path d="M275 1936 c-12 -29 -12 -30 59 -88 39 -32 74 -58 77 -58 14 0 18 45
6 55 -11 8 -11 16 0 42 7 19 18 30 26 28 7 -3 17 7 24 26 l12 31 -96 -4 c-95
-3 -96 -3 -108 -32z m115 -23 c0 -5 -4 -14 -9 -22 -7 -11 -13 -10 -35 4 -14
10 -26 19 -26 21 0 2 16 4 35 4 19 0 35 -3 35 -7z"/>
<path d="M2710 1805 c-30 -7 -67 -14 -83 -14 -25 -1 -27 -4 -21 -28 4 -16 8
-29 8 -30 1 -1 23 4 49 12 26 8 47 12 47 9 0 -3 -20 -24 -45 -47 -38 -36 -44
-46 -38 -70 4 -20 10 -26 21 -22 9 3 49 11 90 17 72 12 73 12 67 37 -4 14 -8
27 -9 28 -2 2 -24 -3 -49 -11 -26 -8 -47 -12 -47 -9 0 3 20 23 45 46 37 36 43
46 39 70 -4 15 -9 26 -13 26 -3 -1 -31 -7 -61 -14z"/>
<path d="M247 1788 c-14 -11 -37 -92 -37 -132 0 -6 38 -18 86 -27 100 -18 95
-22 97 78 2 65 1 67 -26 77 -24 9 -31 7 -41 -6 -12 -16 -14 -16 -29 3 -20 22
-27 23 -50 7z m43 -73 c0 -18 -5 -25 -20 -25 -20 0 -28 28 -13 43 15 16 33 6
33 -18z m68 -8 c3 -22 -1 -27 -17 -27 -21 0 -26 15 -15 45 9 23 29 13 32 -18z"/>
<path d="M252 1549 c-12 -5 -27 -20 -34 -34 -10 -22 -8 -30 9 -53 27 -36 69
-36 96 -1 17 24 18 30 6 54 -16 33 -45 46 -77 34z"/>
<path d="M2698 1544 c-35 -18 -44 -49 -24 -79 30 -45 96 -42 111 6 18 57 -34
101 -87 73z"/>
<path d="M286 1326 c-33 -6 -61 -17 -64 -25 -3 -9 2 -11 14 -8 11 3 35 9 54
12 l35 7 -48 -49 c-26 -27 -45 -52 -42 -54 9 -10 137 16 134 26 -2 6 -6 9 -9
9 -3 -1 -25 -5 -50 -9 l-45 -7 48 42 c41 36 62 73 40 69 -5 -1 -35 -7 -67 -13z"/>
<path d="M2775 1306 l-7 -33 -59 12 c-34 7 -62 9 -65 4 -3 -5 1 -11 8 -13 25
-9 130 -28 132 -24 2 1 6 22 10 46 7 50 -10 58 -19 8z"/>
<path d="M2710 1193 c-77 -11 -90 -15 -90 -23 0 -13 106 -90 122 -90 7 1 3 9
-10 20 -20 16 -22 24 -15 47 6 17 18 29 31 31 12 2 22 8 22 13 0 9 -13 10 -60
2z m-7 -43 c-7 -25 -11 -25 -43 0 l-25 20 37 0 c31 0 35 -3 31 -20z"/>
<path d="M245 1130 c3 -5 17 -10 30 -10 30 0 45 -48 21 -66 -16 -11 -22 -34
-8 -34 16 1 114 99 107 109 -3 6 -38 11 -81 11 -48 0 -73 -4 -69 -10z m110
-30 c-10 -11 -21 -20 -25 -20 -4 0 -10 9 -13 20 -4 17 0 20 25 20 30 0 31 0
13 -20z"/>
<path d="M2585 1073 c-11 -26 -21 -51 -23 -55 -2 -4 2 -8 8 -8 7 0 14 9 17 20
7 26 13 25 73 -5 29 -15 51 -21 55 -15 3 5 -19 21 -50 34 -51 23 -55 27 -49
51 10 42 -10 28 -31 -22z"/>
<path d="M360 981 c-32 -4 -53 -10 -50 -16 3 -5 14 -9 26 -7 13 1 25 -6 34
-23 12 -22 11 -27 -5 -45 -10 -11 -15 -23 -11 -28 9 -8 105 97 106 116 0 12
-8 13 -100 3z m60 -36 c-20 -22 -25 -23 -33 -10 -12 21 0 35 30 35 l26 0 -23
-25z"/>
<path d="M2540 962 c0 -5 19 -19 43 -33 l42 -24 -64 -5 c-36 -3 -66 -9 -68
-15 -2 -9 105 -75 121 -75 19 0 0 19 -40 40 l-45 25 62 5 c34 3 64 10 66 16 2
7 -21 26 -51 43 -60 33 -66 35 -66 23z"/>
<path d="M462 849 c-61 -75 -57 -82 28 -50 27 11 50 17 50 15 0 -3 -18 -24
-40 -48 -26 -28 -37 -47 -30 -51 13 -8 140 35 140 47 0 12 -14 10 -65 -12 -26
-11 -49 -20 -53 -20 -3 0 13 19 36 43 56 57 46 76 -28 47 -29 -11 -54 -19 -56
-17 -2 2 14 21 36 42 22 22 40 43 40 47 0 19 -19 5 -58 -43z"/>
<path d="M2438 811 c-16 -22 -28 -41 -28 -44 0 -2 24 -23 53 -45 l53 -40 33
40 c18 21 30 42 26 46 -4 4 -20 -9 -36 -28 -27 -32 -30 -33 -46 -17 -16 16
-16 18 5 40 12 13 22 30 22 38 0 8 -13 -1 -29 -21 -25 -29 -31 -32 -45 -21
-14 12 -13 16 9 45 14 18 25 36 25 39 0 17 -17 3 -42 -32z"/>
<path d="M2400 665 c53 -54 70 -65 70 -46 0 15 -93 101 -110 101 -8 0 10 -25
40 -55z"/>
<path d="M590 679 c-35 -15 -66 -33 -69 -40 -4 -12 0 -11 45 7 5 3 18 -4 28
-15 14 -16 15 -23 6 -41 -7 -13 -8 -26 -3 -31 5 -5 23 20 43 61 21 43 30 73
24 78 -5 5 -38 -3 -74 -19z m48 -24 c-13 -29 -21 -31 -38 -10 -10 12 -8 16 11
24 36 15 40 13 27 -14z"/>
<path d="M2276 639 l-35 -31 37 -40 c20 -22 41 -46 45 -54 5 -8 13 -12 18 -8
6 4 1 16 -13 31 -22 24 -22 25 -4 38 13 10 25 11 43 4 31 -12 53 -12 53 1 0 5
-15 12 -34 15 -27 6 -33 11 -29 26 6 22 -13 49 -33 49 -7 0 -29 -14 -48 -31z
m61 -5 c3 -9 -3 -25 -16 -37 -20 -20 -22 -20 -38 -5 -15 16 -15 18 8 37 29 25
38 26 46 5z"/>
<path d="M702 581 c-40 -47 -51 -71 -34 -71 4 0 20 19 36 41 15 22 30 39 32
37 1 -2 -1 -29 -5 -60 -4 -32 -5 -62 -1 -68 3 -5 28 15 54 46 27 30 45 58 41
62 -4 4 -23 -11 -42 -33 l-35 -40 7 68 c4 39 3 67 -3 67 -5 0 -28 -22 -50 -49z"/>
<path d="M2138 534 c-37 -20 -46 -58 -21 -92 29 -39 48 -48 80 -36 59 20 61
99 2 129 -33 18 -27 18 -61 -1z m47 -10 c8 -4 22 -19 30 -34 13 -25 13 -31 -4
-51 -25 -31 -64 -20 -82 22 -12 29 -11 33 10 50 26 22 24 21 46 13z"/>
<path d="M975 395 c-15 -36 -25 -69 -21 -72 9 -9 12 -4 35 52 l21 50 -2 -59
c-1 -33 2 -61 8 -62 5 -2 25 17 44 41 19 24 36 43 38 41 2 -2 -6 -22 -17 -45
-22 -43 -26 -61 -13 -61 5 0 20 29 34 65 33 83 19 95 -37 30 l-42 -48 1 63 c1
37 -3 65 -10 67 -6 2 -23 -26 -39 -62z"/>
<path d="M1858 399 c-41 -24 -9 -74 42 -67 37 6 57 -13 35 -32 -9 -7 -27 -10
-45 -6 -35 7 -41 -11 -8 -23 31 -11 57 -3 75 25 22 35 3 54 -54 54 -37 0 -44
3 -41 18 3 13 12 16 42 15 33 -2 36 -1 26 12 -14 17 -47 19 -72 4z"/>
<path d="M1182 343 c-6 -27 -14 -58 -18 -70 -4 -14 -2 -23 4 -23 6 0 18 25 26
55 9 30 19 61 22 70 4 9 1 15 -8 15 -9 0 -19 -18 -26 -47z"/>
<path d="M1759 375 c-9 -8 28 -139 40 -143 14 -5 14 -2 -5 72 -15 60 -26 81
-35 71z"/>
<path d="M1267 353 c-17 -16 -4 -45 28 -64 36 -22 45 -46 21 -55 -19 -7 -56
13 -56 31 0 8 -4 15 -10 15 -12 0 -13 -20 -2 -37 4 -6 19 -16 32 -21 68 -26
100 44 35 75 -19 9 -35 23 -35 30 0 18 49 17 56 -2 8 -19 24 -19 24 0 0 26
-73 48 -93 28z"/>
<path d="M1651 323 c-6 -21 -11 -45 -11 -54 0 -36 -15 -26 -34 23 -12 29 -28
54 -37 56 -13 2 -15 -7 -11 -60 4 -73 9 -91 20 -84 5 3 5 29 1 58 -5 28 -7 53
-5 55 2 2 13 -21 26 -52 12 -30 26 -55 31 -55 7 0 21 41 31 95 2 11 8 -6 12
-39 10 -78 24 -58 18 27 -5 77 -24 91 -41 30z"/>
<path d="M1405 280 c-26 -51 -31 -70 -21 -70 8 0 18 9 21 20 10 31 63 28 71
-5 5 -22 24 -36 24 -19 0 23 -43 144 -50 144 -5 0 -26 -31 -45 -70z m55 3 c0
-7 -9 -13 -20 -13 -17 0 -18 3 -8 25 8 19 14 22 20 13 4 -7 8 -19 8 -25z"/>
</g>
</svg>
